<svg width="800" height="600" xmlns="http://www.w3.org/2000/svg">
 <g>
  <title>Layer 1</title>
  <line fill="none" stroke="#000" opacity="NaN" x1="613" y1="161" x2="613" y2="161" id="svg_2" stroke-linejoin="undefined" stroke-linecap="undefined"/>
  <line fill="none" stroke="#000" opacity="NaN" x1="642" y1="754" x2="642" y2="754" id="svg_3" stroke-linejoin="undefined" stroke-linecap="undefined"/>
  <line fill="none" stroke="#000" opacity="NaN" x1="644" y1="260" x2="644" y2="260" id="svg_4" stroke-linejoin="undefined" stroke-linecap="undefined"/>
  <rect fill="#6d0b09" stroke="#000" opacity="NaN" x="622" y="162" width="0" height="0" id="svg_5"/>
  <rect fill="#6d0b09" stroke="#000" opacity="NaN" x="668" y="154" width="0" height="0" id="svg_6"/>
  <rect fill="#6d0b09" stroke="#000" opacity="NaN" x="706" y="171" width="0" height="0" id="svg_7"/>
  <rect fill="#6d0b09" stroke="#000" opacity="NaN" x="670" y="238" width="0" height="0" id="svg_8"/>
  <rect fill="#6d0b09" stroke="#000" opacity="NaN" x="715" y="337" width="0" height="0" id="svg_9"/>
  <ellipse fill="#6d0b09" stroke="#000" opacity="NaN" cx="760" cy="203" id="svg_10"/>
  <ellipse fill="#6d0b09" stroke="#000" opacity="NaN" cx="899" cy="79" id="svg_11"/>
  <polyline fill="none" stroke="#000" opacity="NaN" points="829,234 " id="svg_12" stroke-linecap="round"/>
  <polyline fill="none" stroke="#000" opacity="NaN" points="662,273 " id="svg_13" stroke-linecap="round"/>
  <line fill="none" stroke="#000" opacity="NaN" x1="988" y1="352" x2="988" y2="352" id="svg_14" stroke-linejoin="undefined" stroke-linecap="undefined"/>
  <rect fill="#6d0b09" stroke="#000" opacity="NaN" x="916" y="254" width="0" height="0" id="svg_15"/>
  <rect fill="#6d0b09" stroke="#000" opacity="NaN" x="904" y="275" width="0" height="0" id="svg_16"/>
  <ellipse fill="#6d0b09" stroke="#000" opacity="NaN" cx="998" cy="212" id="svg_17"/>
  <path fill="#6d0b09" stroke="#000" opacity="NaN" d="m1045,349c328,31 461,6 461,6" id="svg_18"/>
  <ellipse fill="#6d0b09" stroke="#000" opacity="NaN" cx="604" cy="255" id="svg_19"/>
  <rect id="svg_28" height="682" width="411" y="-9" x="-253" stroke="#000" fill="#5e0314"/>
 </g>

</svg>